<svg width="143" height="30" viewBox="0 0 143 30" fill="none" xmlns="http://www.w3.org/2000/svg">
<path d="M8.712 6.2C10.824 6.2 12.56 6.632 13.92 7.496C15.28 8.344 15.976 9.608 16.008 11.288V11.576H11.04V11.48C11.04 11 10.864 10.6 10.512 10.28C10.16 9.96 9.624 9.8 8.904 9.8C8.2 9.8 7.656 9.904 7.272 10.112C6.904 10.32 6.72 10.576 6.72 10.88C6.72 11.312 6.976 11.632 7.488 11.84C8 12.048 8.824 12.264 9.96 12.488C11.288 12.76 12.376 13.048 13.224 13.352C14.088 13.64 14.84 14.12 15.48 14.792C16.12 15.464 16.448 16.376 16.464 17.528C16.464 19.48 15.8 20.928 14.472 21.872C13.16 22.816 11.4 23.288 9.192 23.288C6.616 23.288 4.608 22.856 3.168 21.992C1.744 21.128 1.032 19.6 1.032 17.408H6.048C6.048 18.24 6.264 18.8 6.696 19.088C7.128 19.36 7.8 19.496 8.712 19.496C9.384 19.496 9.936 19.424 10.368 19.28C10.816 19.136 11.04 18.84 11.04 18.392C11.04 17.992 10.792 17.696 10.296 17.504C9.816 17.296 9.024 17.08 7.92 16.856C6.576 16.568 5.464 16.272 4.584 15.968C3.704 15.648 2.936 15.128 2.28 14.408C1.624 13.688 1.296 12.712 1.296 11.48C1.296 9.672 1.992 8.344 3.384 7.496C4.792 6.632 6.568 6.2 8.712 6.2ZM37.9843 10.04C39.4243 10.04 40.5043 10.456 41.2243 11.288C41.9443 12.104 42.3043 13.272 42.3043 14.792V23H37.5283V15.368C37.5283 14.824 37.3923 14.392 37.1203 14.072C36.8643 13.736 36.4963 13.568 36.0163 13.568C35.4563 13.568 35.0003 13.76 34.6483 14.144C34.2963 14.528 34.1203 15 34.1203 15.56V23H29.3443V15.368C29.3443 14.824 29.2083 14.392 28.9363 14.072C28.6803 13.736 28.3123 13.568 27.8323 13.568C27.2723 13.568 26.8163 13.76 26.4643 14.144C26.1123 14.528 25.9363 15 25.9363 15.56V23H21.1603V10.328H25.0723L25.3843 12.224C25.8643 11.552 26.4963 11.024 27.2803 10.64C28.0803 10.24 28.9203 10.04 29.8003 10.04C31.7043 10.04 32.9843 10.768 33.6403 12.224C34.1363 11.552 34.7683 11.024 35.5363 10.64C36.3203 10.24 37.1363 10.04 37.9843 10.04ZM68.5127 23V5.6H73.2887V23H68.5127ZM88.5769 10.712V23H83.2729V10.712H77.8489V6.488H93.9769V10.712H88.5769ZM103.369 10.04C105.593 10.04 107.337 10.608 108.601 11.744C109.881 12.864 110.521 14.504 110.521 16.664C110.521 18.824 109.881 20.472 108.601 21.608C107.337 22.728 105.593 23.288 103.369 23.288C101.145 23.288 99.4006 22.728 98.1366 21.608C96.8726 20.488 96.2406 18.84 96.2406 16.664C96.2406 14.488 96.8726 12.84 98.1366 11.72C99.4006 10.6 101.145 10.04 103.369 10.04ZM103.369 13.28C101.801 13.28 101.017 14.184 101.017 15.992V17.36C101.017 19.152 101.801 20.048 103.369 20.048C104.953 20.048 105.745 19.152 105.745 17.36V15.992C105.745 14.184 104.953 13.28 103.369 13.28ZM124.416 23L124.104 21.08C123.608 21.768 122.952 22.312 122.136 22.712C121.336 23.096 120.488 23.288 119.592 23.288C118.12 23.288 117.016 22.88 116.28 22.064C115.544 21.248 115.176 20.072 115.176 18.536V10.328H119.952V17.96C119.952 18.504 120.088 18.944 120.36 19.28C120.648 19.6 121.048 19.76 121.56 19.76C122.152 19.76 122.632 19.568 123 19.184C123.368 18.8 123.552 18.328 123.552 17.768V10.328H128.328V23H124.416ZM141.336 10.016C141.704 10.016 142.032 10.064 142.32 10.16C142.608 10.24 142.752 10.288 142.752 10.304V14.312H141.216C140.224 14.312 139.504 14.568 139.056 15.08C138.624 15.592 138.408 16.352 138.408 17.36V23H133.632V10.328H137.544L137.856 12.248C138.144 11.512 138.6 10.96 139.224 10.592C139.848 10.208 140.552 10.016 141.336 10.016Z" fill="white"/>
<path d="M58.8374 16.8421C59.2406 15.9776 59.5824 15.1224 59.8711 14.2899L52.6511 10.9231C52.195 11.6776 51.7635 12.491 51.3604 13.3555C50.9572 14.2201 50.6154 15.0753 50.3267 15.9078L57.5467 19.2746C58.0028 18.5201 58.4343 17.7067 58.8374 16.8421ZM58.7968 19.8575L63.5906 22.0929C64.1693 21.3908 64.667 20.6083 65.0683 19.7477C65.4696 18.887 65.7492 18.0028 65.915 17.1082L61.1212 14.8728C60.8289 15.7132 60.4831 16.5665 60.0836 17.4232C59.6841 18.28 59.2526 19.0934 58.7968 19.8575ZM62.6006 23.1484L58.056 21.0292C56.5062 23.3361 54.7636 25.06 53.1495 25.9287C56.5746 26.5445 60.0867 25.4893 62.5968 23.1466L62.6006 23.1484ZM56.7943 20.4408L49.9169 17.2339C49.4935 18.7622 49.2748 20.1868 49.2487 21.4121C49.229 22.5218 49.3742 23.4002 49.6181 24.026C49.8618 24.6422 50.1658 24.9357 50.4501 25.0682C50.7344 25.2008 51.1547 25.2451 51.7833 25.0357C52.4195 24.8203 53.1856 24.3668 54.0231 23.6384C54.947 22.8366 55.8939 21.7515 56.7943 20.4408ZM48.6552 16.6455L44.1106 14.5263C43.9332 17.9568 45.3785 21.3237 48.0558 23.5535C47.6838 21.7586 47.8842 19.3156 48.6552 16.6455ZM44.2828 13.0895L49.0766 15.3249C49.3689 14.4845 49.7147 13.6312 50.1142 12.7744C50.5137 11.9177 50.9452 11.1043 51.401 10.3402L46.6072 8.10479C46.0285 8.80688 45.5308 9.58941 45.1295 10.45C44.7282 11.3107 44.4486 12.1949 44.2828 13.0895ZM56.1729 6.56316C55.249 7.36503 54.3021 8.45011 53.4035 9.75686L60.2809 12.9638C60.7043 11.4355 60.923 10.0108 60.9473 8.7895C60.9669 7.67977 60.8218 6.80139 60.5779 6.1756C60.336 5.55553 60.032 5.26203 59.7477 5.12946C59.4634 4.9969 59.0431 4.95263 58.4145 5.16204C57.7783 5.37743 57.0122 5.83089 56.1747 6.55927L56.1729 6.56316ZM52.1418 9.16849C53.6916 6.86163 55.4342 5.13774 57.0483 4.26896C53.6193 3.65138 50.111 4.7084 47.5972 7.04929L52.1418 9.16849ZM66.0872 15.6714C66.2646 12.2409 64.8193 8.87402 62.1459 6.64602C62.5179 8.44094 62.3136 10.8821 61.5465 13.554L66.0872 15.6714Z" fill="#8DD3BB"/>
</svg>
