<svg width="143" height="30" viewBox="0 0 143 30" fill="none" xmlns="http://www.w3.org/2000/svg">
<path d="M8.712 5.71935C10.824 5.71935 12.56 6.15135 13.92 7.01535C15.28 7.86335 15.976 9.12735 16.008 10.8073V11.0953H11.04V10.9993C11.04 10.5193 10.864 10.1193 10.512 9.79935C10.16 9.47935 9.624 9.31935 8.904 9.31935C8.2 9.31935 7.656 9.42335 7.272 9.63135C6.904 9.83935 6.72 10.0953 6.72 10.3993C6.72 10.8313 6.976 11.1513 7.488 11.3593C8 11.5673 8.824 11.7833 9.96 12.0073C11.288 12.2793 12.376 12.5673 13.224 12.8713C14.088 13.1593 14.84 13.6393 15.48 14.3113C16.12 14.9833 16.448 15.8953 16.464 17.0473C16.464 18.9993 15.8 20.4473 14.472 21.3913C13.16 22.3353 11.4 22.8073 9.192 22.8073C6.616 22.8073 4.608 22.3753 3.168 21.5113C1.744 20.6473 1.032 19.1193 1.032 16.9273H6.048C6.048 17.7593 6.264 18.3193 6.696 18.6073C7.128 18.8793 7.8 19.0153 8.712 19.0153C9.384 19.0153 9.936 18.9433 10.368 18.7993C10.816 18.6553 11.04 18.3593 11.04 17.9113C11.04 17.5113 10.792 17.2153 10.296 17.0233C9.816 16.8153 9.024 16.5993 7.92 16.3753C6.576 16.0873 5.464 15.7913 4.584 15.4873C3.704 15.1673 2.936 14.6473 2.28 13.9273C1.624 13.2073 1.296 12.2313 1.296 10.9993C1.296 9.19135 1.992 7.86335 3.384 7.01535C4.792 6.15135 6.568 5.71935 8.712 5.71935ZM37.9843 9.55935C39.4243 9.55935 40.5043 9.97535 41.2243 10.8073C41.9443 11.6233 42.3043 12.7913 42.3043 14.3113V22.5193H37.5283V14.8873C37.5283 14.3433 37.3923 13.9113 37.1203 13.5913C36.8643 13.2553 36.4963 13.0873 36.0163 13.0873C35.4563 13.0873 35.0003 13.2793 34.6483 13.6633C34.2963 14.0473 34.1203 14.5193 34.1203 15.0793V22.5193H29.3443V14.8873C29.3443 14.3433 29.2083 13.9113 28.9363 13.5913C28.6803 13.2553 28.3123 13.0873 27.8323 13.0873C27.2723 13.0873 26.8163 13.2793 26.4643 13.6633C26.1123 14.0473 25.9363 14.5193 25.9363 15.0793V22.5193H21.1603V9.84735H25.0723L25.3843 11.7433C25.8643 11.0713 26.4963 10.5433 27.2803 10.1593C28.0803 9.75935 28.9203 9.55935 29.8003 9.55935C31.7043 9.55935 32.9843 10.2873 33.6403 11.7433C34.1363 11.0713 34.7683 10.5433 35.5363 10.1593C36.3203 9.75935 37.1363 9.55935 37.9843 9.55935ZM68.5127 22.5193V5.11935H73.2887V22.5193H68.5127ZM88.5769 10.2313V22.5193H83.2729V10.2313H77.8489V6.00735H93.9769V10.2313H88.5769ZM103.369 9.55935C105.593 9.55935 107.337 10.1273 108.601 11.2633C109.881 12.3833 110.521 14.0233 110.521 16.1833C110.521 18.3433 109.881 19.9913 108.601 21.1273C107.337 22.2473 105.593 22.8073 103.369 22.8073C101.145 22.8073 99.4006 22.2473 98.1366 21.1273C96.8726 20.0073 96.2406 18.3593 96.2406 16.1833C96.2406 14.0073 96.8726 12.3593 98.1366 11.2393C99.4006 10.1193 101.145 9.55935 103.369 9.55935ZM103.369 12.7993C101.801 12.7993 101.017 13.7033 101.017 15.5113V16.8793C101.017 18.6713 101.801 19.5673 103.369 19.5673C104.953 19.5673 105.745 18.6713 105.745 16.8793V15.5113C105.745 13.7033 104.953 12.7993 103.369 12.7993ZM124.416 22.5193L124.104 20.5993C123.608 21.2873 122.952 21.8313 122.136 22.2313C121.336 22.6153 120.488 22.8073 119.592 22.8073C118.12 22.8073 117.016 22.3993 116.28 21.5833C115.544 20.7673 115.176 19.5913 115.176 18.0553V9.84735H119.952V17.4793C119.952 18.0233 120.088 18.4633 120.36 18.7993C120.648 19.1193 121.048 19.2793 121.56 19.2793C122.152 19.2793 122.632 19.0873 123 18.7033C123.368 18.3193 123.552 17.8473 123.552 17.2873V9.84735H128.328V22.5193H124.416ZM141.336 9.53535C141.704 9.53535 142.032 9.58335 142.32 9.67935C142.608 9.75935 142.752 9.80735 142.752 9.82335V13.8313H141.216C140.224 13.8313 139.504 14.0873 139.056 14.5993C138.624 15.1113 138.408 15.8713 138.408 16.8793V22.5193H133.632V9.84735H137.544L137.856 11.7673C138.144 11.0313 138.6 10.4793 139.224 10.1113C139.848 9.72735 140.552 9.53535 141.336 9.53535Z" fill="#343434"/>
<path d="M58.8374 16.3615C59.2406 15.497 59.5824 14.6418 59.8711 13.8092L52.6511 10.4425C52.195 11.197 51.7635 12.0104 51.3604 12.8749C50.9572 13.7394 50.6154 14.5946 50.3267 15.4272L57.5467 18.7939C58.0028 18.0394 58.4343 17.226 58.8374 16.3615ZM58.7968 19.3768L63.5906 21.6123C64.1693 20.9102 64.667 20.1276 65.0683 19.267C65.4696 18.4064 65.7492 17.5221 65.915 16.6276L61.1212 14.3921C60.8289 15.2325 60.4831 16.0859 60.0836 16.9426C59.6841 17.7993 59.2526 18.6127 58.7968 19.3768ZM62.6006 22.6678L58.056 20.5486C56.5062 22.8554 54.7636 24.5793 53.1495 25.4481C56.5746 26.0638 60.0867 25.0086 62.5968 22.6659L62.6006 22.6678ZM56.7943 19.9602L49.9169 16.7532C49.4935 18.2815 49.2748 19.7062 49.2487 20.9314C49.229 22.0412 49.3742 22.9196 49.6181 23.5453C49.8618 24.1615 50.1658 24.455 50.4501 24.5876C50.7344 24.7201 51.1547 24.7644 51.7833 24.555C52.4195 24.3396 53.1856 23.8862 54.0231 23.1578C54.947 22.3559 55.8939 21.2708 56.7943 19.9602ZM48.6552 16.1649L44.1106 14.0457C43.9332 17.4761 45.3785 20.843 48.0558 23.0728C47.6838 21.2779 47.8842 18.8349 48.6552 16.1649ZM44.2828 12.6088L49.0766 14.8443C49.3689 14.0039 49.7147 13.1505 50.1142 12.2938C50.5137 11.4371 50.9452 10.6236 51.401 9.85956L46.6072 7.62414C46.0285 8.32623 45.5308 9.10876 45.1295 9.9694C44.7282 10.83 44.4486 11.7143 44.2828 12.6088ZM56.1729 6.08251C55.249 6.88438 54.3021 7.96945 53.4035 9.2762L60.2809 12.4832C60.7043 10.9549 60.923 9.5302 60.9473 8.30885C60.9669 7.19912 60.8218 6.32073 60.5779 5.69495C60.336 5.07487 60.032 4.78138 59.7477 4.64881C59.4634 4.51625 59.0431 4.47198 58.4145 4.68139C57.7783 4.89678 57.0122 5.35023 56.1747 6.07861L56.1729 6.08251ZM52.1418 8.68784C53.6916 6.38098 55.4342 4.65709 57.0483 3.78831C53.6193 3.17073 50.111 4.22775 47.5972 6.56864L52.1418 8.68784ZM66.0872 15.1907C66.2646 11.7603 64.8193 8.39337 62.1459 6.16537C62.5179 7.96028 62.3136 10.4015 61.5465 13.0733L66.0872 15.1907Z" fill="#8DD3BB"/>
</svg>
